<?xml version="1.0" encoding="UTF-8" standalone="no"?>
<!-- Generator: Adobe Illustrator 27.5.0, SVG Export Plug-In . SVG Version: 6.00 Build 0)  -->

<svg
   version="1.1"
   x="0px"
   y="0px"
   viewBox="0 0 1200 800"
   style="enable-background:new 0 0 1200 800;"
   xml:space="preserve"
   id="svg413"
   sodipodi:docname="clouds.svg"
   inkscape:version="1.3.2 (091e20e, 2023-11-25, custom)"
   xmlns:inkscape="http://www.inkscape.org/namespaces/inkscape"
   xmlns:sodipodi="http://sodipodi.sourceforge.net/DTD/sodipodi-0.dtd"
   xmlns:xlink="http://www.w3.org/1999/xlink"
   xmlns="http://www.w3.org/2000/svg"
   xmlns:svg="http://www.w3.org/2000/svg"><defs
   id="defs413"><linearGradient
     id="linearGradient449"
     inkscape:collect="always"><stop
       style="stop-color:#ffffff;stop-opacity:1;"
       offset="0"
       id="stop449" /><stop
       style="stop-color:#f5c3f8;stop-opacity:0.49803922;"
       offset="0.44267729"
       id="stop451" /><stop
       style="stop-color:#2e3b56;stop-opacity:0;"
       offset="1"
       id="stop450" /></linearGradient><inkscape:path-effect
     effect="bspline"
     id="path-effect433"
     is_visible="true"
     lpeversion="1.3"
     weight="33.333333"
     steps="2"
     helper_size="0"
     apply_no_weight="true"
     apply_with_weight="true"
     only_selected="false"
     uniform="false" /><linearGradient
     id="linearGradient422"
     inkscape:collect="always"><stop
       style="stop-color:#ffffff;stop-opacity:1;"
       offset="0"
       id="stop422" /><stop
       style="stop-color:#f5c3f8;stop-opacity:0.49803922;"
       offset="0.28132221"
       id="stop424" /><stop
       style="stop-color:#ffffff;stop-opacity:0;"
       offset="1"
       id="stop423" /></linearGradient><linearGradient
     id="linearGradient418"
     inkscape:collect="always"><stop
       style="stop-color:#ffffff;stop-opacity:0.84474885;"
       offset="0"
       id="stop418" /><stop
       style="stop-color:#f5c3f8;stop-opacity:0.91780823;"
       offset="0.17466152"
       id="stop420" /><stop
       style="stop-color:#f5c3f8;stop-opacity:0;"
       offset="0.98517519"
       id="stop419" /></linearGradient><color-profile
     name="Agfa-:-Swop-Standard"
     xlink:href="../../../Windows/system32/spool/drivers/color/RSWOP.icm"
     id="color-profile1" /><linearGradient
     id="linearGradient413"
     inkscape:collect="always"><stop
       style="stop-color:#f5c3f8;stop-opacity:1;"
       offset="0.32065216"
       id="stop413" /><stop
       style="stop-color:#ffffff;stop-opacity:1;"
       offset="1"
       id="stop414" /></linearGradient><linearGradient
     inkscape:collect="always"
     xlink:href="#linearGradient413"
     id="linearGradient414"
     x1="884.68134"
     y1="460.65747"
     x2="957.28546"
     y2="773.63153"
     gradientUnits="userSpaceOnUse" /><linearGradient
     inkscape:collect="always"
     xlink:href="#linearGradient418"
     id="linearGradient417"
     x1="869.41675"
     y1="280.01993"
     x2="776.82947"
     y2="639.07776"
     gradientUnits="userSpaceOnUse" /><linearGradient
     inkscape:collect="always"
     xlink:href="#linearGradient422"
     id="linearGradient423"
     x1="491.17654"
     y1="142.51405"
     x2="9.117857"
     y2="366.25851"
     gradientUnits="userSpaceOnUse" /><linearGradient
     inkscape:collect="always"
     xlink:href="#linearGradient449"
     id="linearGradient450"
     x1="617.85846"
     y1="227.40477"
     x2="432.409"
     y2="773.56073"
     gradientUnits="userSpaceOnUse"
     gradientTransform="matrix(0.93864358,0,0,0.97166921,-4.1007349,22.585452)" /><linearGradient
     inkscape:collect="always"
     xlink:href="#linearGradient449"
     id="linearGradient451"
     gradientUnits="userSpaceOnUse"
     gradientTransform="matrix(0.95680843,-0.70585341,0.73068845,0.99047317,168.62663,266.1866)"
     x1="617.85846"
     y1="227.40477"
     x2="432.409"
     y2="773.56073" /></defs><sodipodi:namedview
   id="namedview413"
   pagecolor="#ffffff"
   bordercolor="#000000"
   borderopacity="0.25"
   inkscape:showpageshadow="2"
   inkscape:pageopacity="0.0"
   inkscape:pagecheckerboard="0"
   inkscape:deskcolor="#d1d1d1"
   inkscape:zoom="1.1244849"
   inkscape:cx="811.92729"
   inkscape:cy="579.37638"
   inkscape:window-width="1366"
   inkscape:window-height="697"
   inkscape:window-x="-8"
   inkscape:window-y="-8"
   inkscape:window-maximized="1"
   inkscape:current-layer="g413" />

<g
   id="Graphic_Elemnets">
	
<g
   id="g413"
   inkscape:highlight-color="#6e67d1"
   style="enable-background:new 0 0 1200 800">
		<defs
   id="defs1">
			<rect
   id="SVGID_1_"
   width="1200"
   height="800"
   x="0"
   y="0" />
		</defs>
		<clipPath
   id="SVGID_00000101788765680635144310000008735771084488537003_">
			<use
   xlink:href="#SVGID_1_"
   style="overflow:visible"
   id="use1" />
		</clipPath>
		<path
   id="path434-5"
   style="enable-background:new 0 0 1200 800;display:inline;fill:url(#linearGradient451);fill-opacity:1;stroke:none;stroke-width:1.20973"
   d="m 1044.0645,301.99805 a 77.825768,75.180585 53.58319 0 0 -44.38286,14.27148 77.825768,75.180585 53.58319 0 0 -29.39648,52.49414 77.825768,75.180585 53.58319 0 0 -72.27344,8.69336 77.825768,75.180585 53.58319 0 0 -14.29688,107.25977 77.825768,75.180585 53.58319 0 0 3.59961,4.23632 61.148815,59.070456 53.58319 0 0 -23.04687,10.10938 61.148815,59.070456 53.58319 0 0 -19.00781,70.14844 62.538561,60.412965 53.58319 0 0 -71.17188,-0.16797 62.538561,60.412965 53.58319 0 0 -11.48828,86.19141 62.538561,60.412965 53.58319 0 0 7.7832,8.58398 79.215515,76.523094 53.58319 0 0 -36.12695,14.05273 79.215515,76.523094 53.58319 0 0 -26.77344,84.46875 83.384751,80.550624 53.58319 0 0 -90.98437,2.40235 83.384751,80.550624 53.58319 0 0 -27.21875,41.44336 h 500.1074 l 114.2481,-84.28321 V 340.13672 a 90.333477,87.263175 53.58319 0 0 -60.1075,15.08008 90.333477,87.263175 53.58319 0 0 -21.7324,24.01758 77.825768,75.180585 53.58319 0 0 -15.414,-44.96876 77.825768,75.180585 53.58319 0 0 -62.3164,-32.26757 z m 64.9414,121.66797 a 90.333477,87.263175 53.58319 0 0 0.019,1.9082 l -2.877,2.12109 a 77.825768,75.180585 53.58319 0 0 2.8575,-4.02929 z" /><path
   style="display:inline;fill:url(#linearGradient423)"
   d="M 595.37337,430.28861 C 595.19537,399.07561 574.693,375.567 542.941,372.405 c -8.586,-0.855 -16.931,0.103 -24.671,2.543 0.224,-1.399 0.493,-2.782 0.635,-4.211 3.874,-38.9 -24.521,-73.576 -63.421,-77.45 -31.397,-3.127 -60.02,14.782 -71.938,42.255 -5.065,-2.534 -10.642,-4.25 -16.613,-4.844 -14.792,-1.473 -28.65,3.985 -38.412,13.718 -6.707,-2.963 -14.12,-4.621 -21.925,-4.621 -12.34,0 -23.717,4.135 -32.84,11.067 -3.569,1.401 -6.939,3.221 -10.047,5.407 -9.098,-36.925 -42.417,-64.318 -82.174,-64.318 -17.215,0 -33.26,5.136 -46.616,13.995 0.184,-1.46 0.261,-2.95 0.261,-4.468 0,-21.152 -17.128,-38.318 -38.289,-38.318 -5.291,0 -10.349,1.064 -14.952,3.037 -1.702,-29.053 -25.813,-52.1 -55.292,-52.1 -19.72,0 -39.455719,7.94346 -46.858,25.89 -10.3,-4.788 -21.79,-7.447 -33.898,-7.447 -3.949637,146.63118 243.44056,391.30144 339.69837,504.49331 z"
   clip-path="url(#SVGID_00000101788765680635144310000008735771084488537003_)"
   id="path104"
   transform="rotate(-44.531394,824.86724,-340.7979)"
   sodipodi:nodetypes="csccscccsccscsscscscc" />
		
		
		
		
		
		
		
		
		
	<path
   id="path434"
   style="display:inline;fill:url(#linearGradient450);fill-opacity:1;stroke:none;stroke-width:0.955013"
   d="m 407.11499,435.10458 a 59.350725,61.438944 0 0 0 -59.35087,61.4391 59.350725,61.438944 0 0 0 0.30249,4.3782 46.632709,48.273454 0 0 0 -19.37968,-4.3782 46.632709,48.273454 0 0 0 -44.95041,35.6557 47.692543,49.370578 0 0 0 -45.13555,-33.46185 47.692543,49.370578 0 0 0 -47.69301,49.37104 47.692543,49.370578 0 0 0 0.92216,9.1018 60.410558,62.536069 0 0 0 -29.53611,-8.00487 60.410558,62.536069 0 0 0 -56.59546,41.11374 A 63.59006,65.827439 0 0 0 46.771175,549.2055 63.59006,65.827439 0 0 0 2.5229375,568.89129 v 130.346 H 2.2589451 v 97.91845 H 904.18361 a 59.350725,61.438944 0 0 0 0.0587,0.0493 h 86.84833 a 59.350725,61.438944 0 0 0 15.89096,-41.74003 59.350725,61.438944 0 0 0 -41.39015,-58.54307 50.872049,52.661953 0 0 0 18.07256,-40.19903 50.872049,52.661953 0 0 0 -50.8719,-52.66181 50.872049,52.661953 0 0 0 -21.22581,4.8128 61.470392,63.633193 0 0 0 0.0293,-0.42511 61.470392,63.633193 0 0 0 -61.47016,-63.63293 61.470392,63.633193 0 0 0 -52.6777,31.06304 82.667079,85.575671 0 0 0 -78.74157,-59.58686 82.667079,85.575671 0 0 0 -80.43369,66.77001 68.889231,71.313057 0 0 0 -64.76273,-47.02348 68.889231,71.313057 0 0 0 -25.06289,5.07279 59.350725,61.438944 0 0 0 11.28389,-35.79235 59.350725,61.438944 0 0 0 -59.35089,-61.4372 59.350725,61.438944 0 0 0 -43.2766,19.57192 59.350725,61.438944 0 0 0 -49.98826,-28.3492 z m 112.38424,128.23947 a 68.889231,71.313057 0 0 0 -0.88181,1.22027 h -2.82143 a 59.350725,61.438944 0 0 0 3.70324,-1.22027 z" /><path
   id="path207"
   clip-path="url(#SVGID_00000101788765680635144310000008735771084488537003_)"
   style="enable-background:new 0 0 1200 800;display:inline;fill:url(#linearGradient417);fill-opacity:1"
   d="M 63.47399 276.99168 C 58.431358 276.99168 53.542192 277.65121 48.888053 278.89012 L 77.25524 278.89012 C 72.81965 277.77367 68.255392 276.99168 63.47399 276.99168 z M 1064.4759 295.95067 C 1031.1797 295.95067 1001.8637 312.90394 984.65368 338.6577 C 978.29068 334.4917 970.68516 332.05223 962.50524 332.05223 C 946.0084 332.05223 931.82935 341.89981 925.49743 356.03465 C 916.34751 351.58073 906.09177 349.0952 895.22985 349.0952 C 858.49317 349.0952 828.45135 377.66569 826.04235 413.79637 C 823.61835 413.38737 821.13522 413.15965 818.58922 413.15965 C 801.90038 413.15965 787.3688 422.39209 779.81188 436.02293 C 774.84596 434.10301 769.45571 433.0327 763.81579 433.0327 C 740.14195 433.0327 720.78535 451.5368 719.41735 474.86864 C 715.72135 473.28764 711.66146 472.43114 707.40954 472.43114 C 690.42362 472.43114 676.66344 486.2128 676.66344 503.19872 C 676.66344 504.41664 676.72634 505.61256 676.87633 506.78856 C 666.15041 499.67364 653.26861 495.55028 639.44469 495.55028 C 625.48877 495.55028 612.60361 499.88059 601.81579 507.09129 L 1197.0795 507.09129 L 1197.0795 681.14403 L 455.03258 681.14403 L 455.03258 682.45653 L 1265.5775 682.45653 L 1265.5775 649.63426 L 1265.5775 574.73387 L 1265.5775 445.47411 C 1265.5775 396.82843 1226.1465 357.39403 1177.5033 357.39403 C 1169.7473 357.39403 1162.2181 358.40956 1155.0521 360.28856 C 1141.9931 322.82488 1106.3789 295.95067 1064.4759 295.95067 z M -29.356088 296.55028 C -70.124303 301.61185 -101.69007 336.30264 -101.69007 378.43504 C -101.69007 389.47996 -99.5169 400.01186 -95.570932 409.61278 C -126.12569 414.9517 -149.30335 441.61119 -149.30335 473.68895 C -149.30335 474.20295 -149.29332 474.7072 -149.28382 475.2202 L -149.30335 475.2202 L -149.30335 574.73387 L -149.30335 645.71629 L -149.30335 682.45653 L -29.356088 682.45653 L -29.356088 296.55028 z M 457.15368 413.99559 C 456.9449 417.17769 456.71499 420.3581 456.53649 423.54247 C 456.37573 426.44929 456.29158 429.35849 456.23571 432.26903 C 456.19021 434.97412 456.18131 437.68081 456.17321 440.38622 C 456.16421 444.39488 456.16444 448.40286 456.16344 452.41161 C 456.16244 456.64757 456.16149 460.88455 456.16149 465.12059 C 456.16134 468.35453 456.16152 471.5879 456.16149 474.82176 C 456.16146 478.89048 456.16149 482.96014 456.16149 487.02879 C 456.18389 492.40627 456.22749 497.77641 455.9154 503.14598 C 455.82668 504.46015 455.78159 505.7766 455.70251 507.09129 L 581.51696 507.09129 C 572.23899 498.65347 560.29507 492.98669 546.85485 491.64793 C 538.43593 490.80901 530.25332 491.74812 522.6654 494.14012 C 522.8854 492.76812 523.14944 491.41214 523.28844 490.01122 C 527.08644 451.87046 499.24553 417.87164 461.10485 414.07372 C 459.77042 413.94084 458.47667 414.05169 457.15368 413.99559 z "
   transform="translate(-456.16149,291.31105)" /><path
   style="display:inline;fill:url(#linearGradient414)"
   d="m 1403.689,661.44 h 0.02 l -41.517,85.93968 -772.91986,-1.92412 c 18.21,0 5.39621,13.27173 4.67686,-23.74556 2,-30.62 25.86,-56.2 57.4,-59.34 8.88,-0.88 17.5,0.11 25.51,2.63 -0.24,-1.44 -0.51,-2.87 -0.66,-4.35 -4.01,-40.22 25.35,-76.08 65.58,-80.08 32.46,-3.24 62.05,15.28 74.38,43.69 5.23,-2.62 11,-4.4 17.18,-5.01 5.63,-0.56 11.13,-0.14 16.34,1.1 9.5,-17.52 28.05,-29.41 49.39,-29.41 17.55,0 33.24,8.06 43.53,20.66 8.06,-40 43.38,-70.13 85.78,-70.13 17.8,0 34.39,5.31 48.2,14.47 -0.19,-1.51 -0.27,-3.05 -0.27,-4.62 0,-21.87 17.71,-39.62 39.59,-39.62 5.47,0 10.7,1.1 15.46,3.14 1.76,-30.04 26.69,-53.87 57.17,-53.87 20.39,0 38.3,10.67 48.45,26.771 10.65,-4.95 22.53,-7.7 35.05,-7.7 46.14,0 83.53,37.39 83.53,83.52 0,11.17 -2.2,21.82 -6.19,31.53 30.9,5.4 54.34,32.36 54.34,64.8 0,0.519 -0.01,1.029 -0.02,1.549 z"
   clip-path="url(#SVGID_00000101788765680635144310000008735771084488537003_)"
   id="path413"
   sodipodi:nodetypes="ccccccccccccscscsscscsscsc"
   transform="matrix(1.0058245,0,0,1,-7.5612157,54.872591)" /></g></g>
</svg>
