<?xml version="1.0" encoding="UTF-8" standalone="no"?>
<!-- Generator: Adobe Illustrator 27.5.0, SVG Export Plug-In . SVG Version: 6.00 Build 0)  -->

<svg
   version="1.1"
   x="0px"
   y="0px"
   viewBox="0 0 750 500"
   style="enable-background:new 0 0 750 500;"
   xml:space="preserve"
   id="svg195"
   sodipodi:docname="erro404.svg"
   inkscape:version="1.3.2 (091e20e, 2023-11-25, custom)"
   xmlns:inkscape="http://www.inkscape.org/namespaces/inkscape"
   xmlns:sodipodi="http://sodipodi.sourceforge.net/DTD/sodipodi-0.dtd"
   xmlns="http://www.w3.org/2000/svg"
   xmlns:svg="http://www.w3.org/2000/svg"><defs
   id="defs195" /><sodipodi:namedview
   id="namedview195"
   pagecolor="#ffffff"
   bordercolor="#000000"
   borderopacity="0.25"
   inkscape:showpageshadow="2"
   inkscape:pageopacity="0.0"
   inkscape:pagecheckerboard="0"
   inkscape:deskcolor="#d1d1d1"
   inkscape:zoom="1.002"
   inkscape:cx="375.2495"
   inkscape:cy="250"
   inkscape:window-width="1366"
   inkscape:window-height="697"
   inkscape:window-x="-8"
   inkscape:window-y="-8"
   inkscape:window-maximized="1"
   inkscape:current-layer="OBJECTS" />
<g
   id="BACKGROUND"
   style="fill:none">
	<rect
   id="XMLID_1_"
   style="fill:none"
   width="750"
   height="500" />
</g>
<g
   id="OBJECTS">
	<g
   id="g10">
		<linearGradient
   id="SVGID_1_"
   gradientUnits="userSpaceOnUse"
   x1="387.9164"
   y1="387.4633"
   x2="404.0962"
   y2="143.1487">
			<stop
   offset="0"
   style="stop-color:#31D1D6"
   id="stop1" />
			<stop
   offset="0.3733"
   style="stop-color:#32CED8"
   id="stop2" />
			<stop
   offset="0.6175"
   style="stop-color:#36C6DF"
   id="stop3" />
			<stop
   offset="0.824"
   style="stop-color:#3CB7EB"
   id="stop4" />
			<stop
   offset="1"
   style="stop-color:#45A3FA"
   id="stop5" />
		</linearGradient>
		<path
   style="opacity:0.37;fill:url(#SVGID_1_);"
   d="M204.161,373.453h-51.483c-13.777-14.31-17.461-37.116-9.233-55.196    c7.844-17.234,24.686-28.62,34.89-44.571c21.777-34.041,11.251-84.755,40.843-112.274c14.792-13.756,36.063-17.734,56.199-19.342    c20.136-1.608,40.946-1.563,59.568-9.39c22.963-9.652,40.273-30.381,63.926-38.193c26.558-8.771,58.33,2.174,73.85,25.442    c9.711,14.559,13.376,32.851,24.861,46.057c18.571,21.354,51.288,23.011,74.45,39.272c15.885,11.153,26.611,29.367,28.658,48.669    c2.472,23.305-6.375,49.777,7.598,68.591c6.814,9.175,17.862,14.346,25.204,23.104c7.316,8.727,9.376,16.679,7.074,27.831H204.161    z"
   id="path5" />
		
			<linearGradient
   id="SVGID_00000060744143449431808960000004163645588594845598_"
   gradientUnits="userSpaceOnUse"
   x1="401.0737"
   y1="387.4633"
   x2="417.2535"
   y2="143.1487">
			<stop
   offset="0"
   style="stop-color:#31D1D6"
   id="stop6" />
			<stop
   offset="0.3733"
   style="stop-color:#32CED8"
   id="stop7" />
			<stop
   offset="0.6175"
   style="stop-color:#36C6DF"
   id="stop8" />
			<stop
   offset="0.824"
   style="stop-color:#3CB7EB"
   id="stop9" />
			<stop
   offset="1"
   style="stop-color:#45A3FA"
   id="stop10" />
		</linearGradient>
		<path
   style="opacity:0.37;fill:url(#SVGID_00000060744143449431808960000004163645588594845598_);"
   d="M217.318,373.453h-51.483    c-13.777-14.31-17.461-37.116-9.233-55.196c7.844-17.234,24.686-28.62,34.89-44.571c21.777-34.041,11.251-84.755,40.843-112.274    c14.792-13.756,36.063-17.734,56.199-19.342s40.946-1.563,59.568-9.39c22.963-9.652,40.273-30.381,63.926-38.193    c26.558-8.771,58.33,2.174,73.85,25.442c9.711,14.559,13.376,32.851,24.861,46.057c18.571,21.354,51.288,23.011,74.45,39.272    c15.885,11.153,26.611,29.367,28.658,48.669c2.472,23.305-6.375,49.777,7.598,68.591c6.814,9.175,17.862,14.346,25.204,23.104    c7.316,8.727,9.376,16.679,7.074,27.831H217.318z"
   id="path10" />
	</g>
	
		<linearGradient
   id="SVGID_00000020380920961226950110000017661439502441098156_"
   gradientUnits="userSpaceOnUse"
   x1="238.6703"
   y1="197.9663"
   x2="238.6703"
   y2="155.3596">
		<stop
   offset="0"
   style="stop-color:#F9E6D9"
   id="stop11" />
		<stop
   offset="0.121"
   style="stop-color:#FCF1EA"
   id="stop12" />
		<stop
   offset="0.2698"
   style="stop-color:#FEF9F6"
   id="stop13" />
		<stop
   offset="0.4751"
   style="stop-color:#FFFEFD"
   id="stop14" />
		<stop
   offset="1"
   style="stop-color:#FFFFFF"
   id="stop15" />
	</linearGradient>
	<path
   style="fill:url(#SVGID_00000020380920961226950110000017661439502441098156_);"
   d="M335.807,197.162l-2.12,0.07h-191.46   l-0.46,0.06c-1.9-12.7,8.04-25.6,20.55-29.02c10.94-2.99,23.74-0.33,32.9-7.02c8.21-5.99,10.25-17.19,15.62-25.82   c3.34-5.37,8.1-9.85,13.67-12.84c6.98-3.75,15.69-5.06,22.85-1.67c12.68,6.02,15.11,22.82,23.59,34.01c1.89,2.5,4.27,4.83,7.3,5.66   c2.79,0.77,5.75,0.17,8.61-0.34c9.37-1.65,20.61-1.5,26.44,6.02c2.74,3.54,3.72,8.08,5.24,12.28c1.52,4.21,4.01,8.53,8.22,10.04   c2.02,0.71,4.31,0.73,6.09,1.92C334.987,191.942,335.677,194.492,335.807,197.162z"
   id="path15" />
	
		<linearGradient
   id="SVGID_00000072990771814662274300000014814713624520484773_"
   gradientUnits="userSpaceOnUse"
   x1="530.7737"
   y1="227.8753"
   x2="533.4703"
   y2="186.3472">
		<stop
   offset="0"
   style="stop-color:#F9E6D9"
   id="stop16" />
		<stop
   offset="0.121"
   style="stop-color:#FCF1EA"
   id="stop17" />
		<stop
   offset="0.2698"
   style="stop-color:#FEF9F6"
   id="stop18" />
		<stop
   offset="0.4751"
   style="stop-color:#FFFEFD"
   id="stop19" />
		<stop
   offset="1"
   style="stop-color:#FFFFFF"
   id="stop20" />
	</linearGradient>
	<path
   style="fill:url(#SVGID_00000072990771814662274300000014814713624520484773_);"
   d="M643.772,221.339h-223.27   c-1.78-2.34-2-5.96-0.73-8.74c1.65-3.65,5.09-6.13,8.52-8.19c3.43-2.07,7.08-3.97,9.65-7.04c4.93-5.89,4.64-14.34,5.73-21.94   c1.28-9.02,5.06-17.95,11.88-24c2.7-2.4,5.83-4.3,9.11-5.82c9.35-4.35,20.93-5.44,29.67,0.04c8.36,5.24,12.46,15.21,19.75,21.86   c1.72,1.58,3.69,2.99,5.97,3.52c6.53,1.5,12.08-4.42,16.98-8.99c6.96-6.49,16.26-11.34,25.7-10.13   c11.1,1.44,19.68,10.96,23.89,21.33c1.76,4.32,3.1,9.1,6.6,12.17c8.98,7.87,24.14-0.95,34.61,4.77c3.93,2.15,6.56,6.06,8.66,10.02   C639.992,206.809,642.462,213.969,643.772,221.339z"
   id="path20" />
	<g
   id="g30">
		
			<linearGradient
   id="SVGID_00000109724129341855782740000010620932252447330955_"
   gradientUnits="userSpaceOnUse"
   x1="218.2585"
   y1="300.5156"
   x2="331.3926"
   y2="300.5156">
			<stop
   offset="0"
   style="stop-color:#31D1D6"
   id="stop21" />
			<stop
   offset="0.3733"
   style="stop-color:#32CED8"
   id="stop22" />
			<stop
   offset="0.6175"
   style="stop-color:#36C6DF"
   id="stop23" />
			<stop
   offset="0.824"
   style="stop-color:#3CB7EB"
   id="stop24" />
			<stop
   offset="1"
   style="stop-color:#45A3FA"
   id="stop25" />
		</linearGradient>
		<path
   style="fill:url(#SVGID_00000109724129341855782740000010620932252447330955_);"
   d="M331.393,345.211H315.33v28.233h-38.909    v-28.233h-58.163v-28.932l60.657-88.692h36.415v88.193h16.062V345.211z M276.422,315.78v-16.96c0-3.193,0.116-7.498,0.349-12.92    c0.232-5.42,0.415-8.263,0.549-8.53h-1.097c-2.262,5.123-4.824,9.911-7.682,14.367l-16.162,24.044H276.422z"
   id="path25" />
		
			<linearGradient
   id="SVGID_00000113355210289091616120000000403457507848356241_"
   gradientUnits="userSpaceOnUse"
   x1="265.2303"
   y1="383.0508"
   x2="264.1516"
   y2="328.0396">
			<stop
   offset="0"
   style="stop-color:#F9E6D9"
   id="stop26" />
			<stop
   offset="0.121"
   style="stop-color:#FCF1EA"
   id="stop27" />
			<stop
   offset="0.2698"
   style="stop-color:#FEF9F6"
   id="stop28" />
			<stop
   offset="0.4751"
   style="stop-color:#FFFEFD"
   id="stop29" />
			<stop
   offset="1"
   style="stop-color:#FFFFFF"
   id="stop30" />
		</linearGradient>
		<path
   style="fill:url(#SVGID_00000113355210289091616120000000403457507848356241_);"
   d="M320.767,345.219h-16.062v28.233h-38.909    v-28.233h-58.163v-28.932l60.657-88.692h36.415v88.193h16.062V345.219z M265.796,315.789v-16.96c0-3.193,0.116-7.498,0.349-12.92    c0.232-5.42,0.415-8.263,0.549-8.53h-1.097c-2.262,5.123-4.824,9.911-7.682,14.367l-16.162,24.044H265.796z"
   id="path30" />
	</g>
	<g
   id="g40">
		
			<linearGradient
   id="SVGID_00000136382606955645668790000000459232202307674765_"
   gradientUnits="userSpaceOnUse"
   x1="462.0378"
   y1="311.1027"
   x2="575.1755"
   y2="311.1027"
   gradientTransform="matrix(0.9818 -0.1899 0.1899 0.9818 -47.317 104.3219)">
			<stop
   offset="0"
   style="stop-color:#31D1D6"
   id="stop31" />
			<stop
   offset="0.3733"
   style="stop-color:#32CED8"
   id="stop32" />
			<stop
   offset="0.6175"
   style="stop-color:#36C6DF"
   id="stop33" />
			<stop
   offset="0.824"
   style="stop-color:#3CB7EB"
   id="stop34" />
			<stop
   offset="1"
   style="stop-color:#45A3FA"
   id="stop35" />
		</linearGradient>
		<path
   style="fill:url(#SVGID_00000136382606955645668790000000459232202307674765_);"
   d="M585.294,346.189l-5.59-28.9l-10.43,2.02    l-5.34,1.03l-16.74-86.59l-35.76,6.92l-42.71,98.59l5.49,28.41l57.11-11.05l3.25,16.83h39.63l-4.68-24.21l5.34-1.03    L585.294,346.189z M515.304,329.749l-13.17,2.54l9.4-22.18l1.9-4.49c1.96-4.92,3.56-10.11,4.81-15.57l1.08-0.2    c-0.08,0.28,0.28,3.11,1.08,8.48c0.8,5.36,1.5,9.61,2.11,12.75l3.22,16.65L515.304,329.749z"
   id="path35" />
		
			<linearGradient
   id="SVGID_00000056417249359998352190000010931093961091522975_"
   gradientUnits="userSpaceOnUse"
   x1="517.233"
   y1="378.1096"
   x2="516.1544"
   y2="323.0983">
			<stop
   offset="0"
   style="stop-color:#F9E6D9"
   id="stop36" />
			<stop
   offset="0.121"
   style="stop-color:#FCF1EA"
   id="stop37" />
			<stop
   offset="0.2698"
   style="stop-color:#FEF9F6"
   id="stop38" />
			<stop
   offset="0.4751"
   style="stop-color:#FFFEFD"
   id="stop39" />
			<stop
   offset="1"
   style="stop-color:#FFFFFF"
   id="stop40" />
		</linearGradient>
		<path
   style="fill:url(#SVGID_00000056417249359998352190000010931093961091522975_);"
   d="M574.864,348.209l-5.59-28.89    l-15.77,3.05l-16.75-86.59l-25.32,4.89l-10.43,2.02l-42.71,98.6l5.49,28.4l10.43-2.02l46.68-9.02l2.86,14.8h39.63l-4.29-22.19    l10.43-2.02L574.864,348.209z M511.534,310.109c0.19,1.09,0.38,2.08,0.55,2.99l3.22,16.65l-23.61,4.57l11.31-26.68    c1.96-4.91,3.56-10.1,4.81-15.56l1.08-0.21c-0.08,0.29,0.28,3.12,1.08,8.48C510.544,304.169,511.064,307.429,511.534,310.109z"
   id="path40" />
	</g>
	<g
   id="XMLID_2_">
		<g
   id="g51">
			
				<linearGradient
   id="SVGID_00000078738119171202264770000013807243905033873565_"
   gradientUnits="userSpaceOnUse"
   x1="290.2558"
   y1="231.047"
   x2="322.2558"
   y2="222.7774">
				<stop
   offset="0"
   style="stop-color:#31D1D6"
   id="stop41" />
				<stop
   offset="0.3733"
   style="stop-color:#32CED8"
   id="stop42" />
				<stop
   offset="0.6175"
   style="stop-color:#36C6DF"
   id="stop43" />
				<stop
   offset="0.824"
   style="stop-color:#3CB7EB"
   id="stop44" />
				<stop
   offset="1"
   style="stop-color:#45A3FA"
   id="stop45" />
			</linearGradient>
			<path
   style="fill:url(#SVGID_00000078738119171202264770000013807243905033873565_);"
   d="M336.824,299.469l-23.755-0.001     l-15.092-110.491c0,0-21.804-23.819-46.834-28.279l23.84-2.57l53.73,1.46L336.824,299.469z"
   id="path45" />
			<path
   style="fill:#111023;"
   d="M243.071,238.728c0,0-13.498,19.755-7.505,36.717l25.111-36.717l-3.261-4.38L243.071,238.728z"
   id="path46" />
			<path
   style="fill:#111023;"
   d="M313.069,299.468l-0.809,5.101c0,0-7.156,1.001-7.556,11.22h18.612l10.112-9.871l0.944-6.449     H313.069z"
   id="path47" />
			
				<linearGradient
   id="SVGID_00000132090443729635306220000000838172113541957799_"
   gradientUnits="userSpaceOnUse"
   x1="226.7384"
   y1="200.6536"
   x2="297.9775"
   y2="200.6536">
				<stop
   offset="0"
   style="stop-color:#31D1D6"
   id="stop47" />
				<stop
   offset="0.3733"
   style="stop-color:#32CED8"
   id="stop48" />
				<stop
   offset="0.6175"
   style="stop-color:#36C6DF"
   id="stop49" />
				<stop
   offset="0.824"
   style="stop-color:#3CB7EB"
   id="stop50" />
				<stop
   offset="1"
   style="stop-color:#45A3FA"
   id="stop51" />
			</linearGradient>
			<path
   style="fill:url(#SVGID_00000132090443729635306220000000838172113541957799_);"
   d="M284.334,188.899l-29.77-1.11     l4.838,45.59l-20.178,7.23l-11.63-56.3c-3.4-10.49,3.71-21.46,14.67-22.65l8.87-0.96h0.01     c25.03,4.46,46.834,28.279,46.834,28.279L284.334,188.899z"
   id="path51" />
		</g>
		<g
   id="g94">
			
				<linearGradient
   id="SVGID_00000024696877636156276010000002822900653882368922_"
   gradientUnits="userSpaceOnUse"
   x1="177.1385"
   y1="58.9747"
   x2="229.5139"
   y2="58.9747">
				<stop
   offset="0"
   style="stop-color:#51ADC6"
   id="stop52" />
				<stop
   offset="0.0061"
   style="stop-color:#55AFC4"
   id="stop53" />
				<stop
   offset="0.0663"
   style="stop-color:#74BFB5"
   id="stop54" />
				<stop
   offset="0.1333"
   style="stop-color:#8FCDA7"
   id="stop55" />
				<stop
   offset="0.2102"
   style="stop-color:#A5D89D"
   id="stop56" />
				<stop
   offset="0.3001"
   style="stop-color:#B6E094"
   id="stop57" />
				<stop
   offset="0.4112"
   style="stop-color:#C1E78E"
   id="stop58" />
				<stop
   offset="0.5672"
   style="stop-color:#C8EA8B"
   id="stop59" />
				<stop
   offset="1"
   style="stop-color:#CAEB8A"
   id="stop60" />
			</linearGradient>
			<path
   style="fill:url(#SVGID_00000024696877636156276010000002822900653882368922_);"
   d="M229.514,61.653v1.325l-1.614,0.207     c-0.415-0.893-0.857-1.605-1.298-1.993c-2.155-1.857-3.652-3.318-5.193-2.425c-1.163,0.676-1.073,3.859-0.965,5.365l-4.391,0.559     l-38.896,4.932l-0.018-0.072c2.525-0.595,4.481-5.121,4.481-10.621c0-5.428-1.902-9.9-4.373-10.603l52.267,5.897v1.055V61.653z"
   id="path60" />
			
				<linearGradient
   id="SVGID_00000078762273542895284030000016219788556930690182_"
   gradientUnits="userSpaceOnUse"
   x1="180.0508"
   y1="52.9203"
   x2="171.5755"
   y2="52.9203">
				<stop
   offset="0"
   style="stop-color:#8AEBD6"
   id="stop61" />
				<stop
   offset="0.4615"
   style="stop-color:#89E9D7"
   id="stop62" />
				<stop
   offset="0.6276"
   style="stop-color:#84E2DA"
   id="stop63" />
				<stop
   offset="0.7461"
   style="stop-color:#7DD7DE"
   id="stop64" />
				<stop
   offset="0.8419"
   style="stop-color:#72C6E5"
   id="stop65" />
				<stop
   offset="0.9229"
   style="stop-color:#64B0EE"
   id="stop66" />
				<stop
   offset="0.9944"
   style="stop-color:#5395F9"
   id="stop67" />
				<stop
   offset="1"
   style="stop-color:#5193FA"
   id="stop68" />
			</linearGradient>
			<path
   style="fill:url(#SVGID_00000078762273542895284030000016219788556930690182_);"
   d="M180.051,51.176     c-0.108,0.162-0.207,0.325-0.298,0.496c-0.559,1.082-0.82,2.317-1.515,3.309c-0.505,0.739-1.235,1.307-2.065,1.632     c-0.875,0.343-1.83,0.397-2.768,0.523c-0.622,0.081-1.262,0.207-1.83,0.469c0.298-5.193,2.344-9.233,4.86-9.368l0.811,0.09     C178.329,48.633,179.302,49.661,180.051,51.176z"
   id="path68" />
			
				<linearGradient
   id="SVGID_00000101803127966906187060000008711905240174893994_"
   gradientUnits="userSpaceOnUse"
   x1="181.6015"
   y1="57.9919"
   x2="171.5304"
   y2="57.9919">
				<stop
   offset="0"
   style="stop-color:#31D1D6"
   id="stop69" />
				<stop
   offset="0.3733"
   style="stop-color:#32CED8"
   id="stop70" />
				<stop
   offset="0.6175"
   style="stop-color:#36C6DF"
   id="stop71" />
				<stop
   offset="0.824"
   style="stop-color:#3CB7EB"
   id="stop72" />
				<stop
   offset="1"
   style="stop-color:#45A3FA"
   id="stop73" />
			</linearGradient>
			<path
   style="fill:url(#SVGID_00000101803127966906187060000008711905240174893994_);"
   d="M181.602,58.055     c-0.018,0.018-0.027,0.036-0.045,0.054c-0.64,0.857-0.947,1.929-1.542,2.813c-0.694,1.037-1.803,1.794-3.02,2.074     c-1.127,0.252-2.344,0.117-3.372,0.631c-0.523,0.27-0.947,0.685-1.262,1.181c-0.523-1.686-0.829-3.706-0.829-5.879     c0-0.451,0.009-0.893,0.045-1.325c0.568-0.261,1.208-0.388,1.83-0.469c0.938-0.126,1.893-0.18,2.768-0.523     c0.829-0.325,1.56-0.893,2.065-1.632c0.694-0.992,0.956-2.227,1.515-3.309c0.09-0.171,0.189-0.334,0.298-0.496     C180.925,52.943,181.502,55.35,181.602,58.055z"
   id="path73" />
			
				<linearGradient
   id="SVGID_00000143582557133322891800000001407119819222136992_"
   gradientUnits="userSpaceOnUse"
   x1="181.6196"
   y1="63.8389"
   x2="172.3599"
   y2="63.8389">
				<stop
   offset="0"
   style="stop-color:#8AEBD6"
   id="stop74" />
				<stop
   offset="0.4615"
   style="stop-color:#89E9D7"
   id="stop75" />
				<stop
   offset="0.6276"
   style="stop-color:#84E2DA"
   id="stop76" />
				<stop
   offset="0.7461"
   style="stop-color:#7DD7DE"
   id="stop77" />
				<stop
   offset="0.8419"
   style="stop-color:#72C6E5"
   id="stop78" />
				<stop
   offset="0.9229"
   style="stop-color:#64B0EE"
   id="stop79" />
				<stop
   offset="0.9944"
   style="stop-color:#5395F9"
   id="stop80" />
				<stop
   offset="1"
   style="stop-color:#5193FA"
   id="stop81" />
			</linearGradient>
			<path
   style="fill:url(#SVGID_00000143582557133322891800000001407119819222136992_);"
   d="M181.62,58.93     c0,5.5-1.957,10.026-4.481,10.621c-0.18,0.045-0.379,0.072-0.568,0.072c-1.758,0-3.309-1.911-4.211-4.815     c0.316-0.496,0.739-0.911,1.262-1.181c1.028-0.514,2.245-0.379,3.372-0.631c1.217-0.279,2.326-1.037,3.02-2.074     c0.595-0.884,0.902-1.957,1.542-2.813c0.018-0.018,0.027-0.036,0.045-0.054C181.611,58.344,181.62,58.632,181.62,58.93z"
   id="path81" />
			<path
   style="fill:#111023;"
   d="M260.313,56.315h15.724c-1.641,0.658-3.038,1.407-3.67,2.002c-0.496,0.46-0.28,1.298,0.334,2.371     h-12.388V56.315z"
   id="path82" />
			<path
   style="fill:#111023;"
   d="M295.161,58.948v1.74h-8.52c-0.82-1.893-1.434-3.489-1.641-4.373h10.161V58.948z"
   id="path83" />
			
				<linearGradient
   id="SVGID_00000101814034139424667690000017102491774368416446_"
   gradientUnits="userSpaceOnUse"
   x1="229.5139"
   y1="58.4653"
   x2="260.3134"
   y2="58.4653">
				<stop
   offset="0"
   style="stop-color:#31D1D6"
   id="stop83" />
				<stop
   offset="0.3733"
   style="stop-color:#32CED8"
   id="stop84" />
				<stop
   offset="0.6175"
   style="stop-color:#36C6DF"
   id="stop85" />
				<stop
   offset="0.824"
   style="stop-color:#3CB7EB"
   id="stop86" />
				<stop
   offset="1"
   style="stop-color:#45A3FA"
   id="stop87" />
			</linearGradient>
			<polygon
   style="fill:url(#SVGID_00000101814034139424667690000017102491774368416446_);"
   points="260.313,60.688 260.313,61.653      229.514,61.653 229.514,55.278 260.313,55.278 260.313,56.315    "
   id="polygon87" />
			
				<linearGradient
   id="SVGID_00000065065974743162155970000002341109619012350848_"
   gradientUnits="userSpaceOnUse"
   x1="216.0428"
   y1="68.0998"
   x2="230.7311"
   y2="68.0998">
				<stop
   offset="0"
   style="stop-color:#F7BE86"
   id="stop88" />
				<stop
   offset="0.3293"
   style="stop-color:#F7BC83"
   id="stop89" />
				<stop
   offset="0.5448"
   style="stop-color:#F7B67B"
   id="stop90" />
				<stop
   offset="0.7276"
   style="stop-color:#F7AC6C"
   id="stop91" />
				<stop
   offset="0.8912"
   style="stop-color:#F79E57"
   id="stop92" />
				<stop
   offset="1"
   style="stop-color:#F79244"
   id="stop93" />
			</linearGradient>
			<path
   style="fill:url(#SVGID_00000065065974743162155970000002341109619012350848_);"
   d="M230.731,72.544l-6.78,5.157     c0,0-8.232-8.629-7.898-13.01l4.391-0.559c-0.108-1.506-0.198-4.688,0.965-5.365c1.542-0.893,3.038,0.568,5.193,2.425     c0.442,0.388,0.884,1.1,1.298,1.993C229.487,66.584,230.731,72.544,230.731,72.544z"
   id="path93" />
			<path
   style="fill:#5B2B89;"
   d="M185.107,48.366c-0.453-0.992-1.918-0.145-1.469,0.838c2.788,6.102,2.43,12.814-0.911,18.618     c-0.543,0.943,0.921,1.79,1.465,0.846C187.842,62.325,188.144,55.014,185.107,48.366z"
   id="path94" />
		</g>
		<g
   id="g133">
			
				<linearGradient
   id="SVGID_00000123424914789900417640000017226694299361297805_"
   gradientUnits="userSpaceOnUse"
   x1="302.7981"
   y1="79.3268"
   x2="302.3118"
   y2="96.9946">
				<stop
   offset="0"
   style="stop-color:#7B6ED6"
   id="stop94" />
				<stop
   offset="0.4804"
   style="stop-color:#796DD5"
   id="stop95" />
				<stop
   offset="0.6535"
   style="stop-color:#7268D0"
   id="stop96" />
				<stop
   offset="0.7768"
   style="stop-color:#6760C9"
   id="stop97" />
				<stop
   offset="0.8765"
   style="stop-color:#5655BE"
   id="stop98" />
				<stop
   offset="0.961"
   style="stop-color:#4047B0"
   id="stop99" />
				<stop
   offset="1"
   style="stop-color:#333EA8"
   id="stop100" />
			</linearGradient>
			<polygon
   style="fill:url(#SVGID_00000123424914789900417640000017226694299361297805_);"
   points="305.863,79.351 305.863,84.581      299.606,78.666    "
   id="polygon100" />
			
				<linearGradient
   id="SVGID_00000082360733876753177370000010054822336849710523_"
   gradientUnits="userSpaceOnUse"
   x1="314.7052"
   y1="79.5593"
   x2="313.4085"
   y2="120.568">
				<stop
   offset="0"
   style="stop-color:#7B6ED6"
   id="stop101" />
				<stop
   offset="0.4804"
   style="stop-color:#796DD5"
   id="stop102" />
				<stop
   offset="0.6535"
   style="stop-color:#7268D0"
   id="stop103" />
				<stop
   offset="0.7768"
   style="stop-color:#6760C9"
   id="stop104" />
				<stop
   offset="0.8765"
   style="stop-color:#5655BE"
   id="stop105" />
				<stop
   offset="0.961"
   style="stop-color:#4047B0"
   id="stop106" />
				<stop
   offset="1"
   style="stop-color:#333EA8"
   id="stop107" />
			</linearGradient>
			<path
   style="fill:url(#SVGID_00000082360733876753177370000010054822336849710523_);"
   d="M305.863,84.581l6.302,5.951l6.014,5.68     c0,0,13.777-9.647,19.123-9.729c0.379-0.009,0.739,0.018,1.091,0.072c4.715,0.667,7.601,6.122,6.771,11.351     c-0.893,5.635-0.73,11.874-6.158,12.884c-5.428,1.019-29.339,6.816-29.339,6.816l-26.174-35.506l3.084-2.155l6.87-4.806     l1.388-0.974l3.02,2.849l1.749,1.65L305.863,84.581z"
   id="path107" />
			
				<linearGradient
   id="SVGID_00000088819261859490360670000003660317378733437313_"
   gradientUnits="userSpaceOnUse"
   x1="325.5164"
   y1="79.952"
   x2="325.0302"
   y2="97.6198">
				<stop
   offset="0"
   style="stop-color:#7B6ED6"
   id="stop108" />
				<stop
   offset="0.4804"
   style="stop-color:#796DD5"
   id="stop109" />
				<stop
   offset="0.6535"
   style="stop-color:#7268D0"
   id="stop110" />
				<stop
   offset="0.7768"
   style="stop-color:#6760C9"
   id="stop111" />
				<stop
   offset="0.8765"
   style="stop-color:#5655BE"
   id="stop112" />
				<stop
   offset="0.961"
   style="stop-color:#4047B0"
   id="stop113" />
				<stop
   offset="1"
   style="stop-color:#333EA8"
   id="stop114" />
			</linearGradient>
			<path
   style="fill:url(#SVGID_00000088819261859490360670000003660317378733437313_);"
   d="M322.76,80.442l15.634,6.113     c-0.352-0.054-0.712-0.081-1.091-0.072c-5.347,0.081-19.123,9.729-19.123,9.729l-6.014-5.68L322.76,80.442z"
   id="path114" />
			
				<linearGradient
   id="SVGID_00000110434308269472775380000007942172400479292863_"
   gradientUnits="userSpaceOnUse"
   x1="221.0026"
   y1="117.196"
   x2="339.0072"
   y2="117.196">
				<stop
   offset="0"
   style="stop-color:#7B6ED6"
   id="stop115" />
				<stop
   offset="0.4804"
   style="stop-color:#796DD5"
   id="stop116" />
				<stop
   offset="0.6535"
   style="stop-color:#7268D0"
   id="stop117" />
				<stop
   offset="0.7768"
   style="stop-color:#6760C9"
   id="stop118" />
				<stop
   offset="0.8765"
   style="stop-color:#5655BE"
   id="stop119" />
				<stop
   offset="0.961"
   style="stop-color:#4047B0"
   id="stop120" />
				<stop
   offset="1"
   style="stop-color:#333EA8"
   id="stop121" />
			</linearGradient>
			<path
   style="fill:url(#SVGID_00000110434308269472775380000007942172400479292863_);"
   d="M339.007,110.791l-9.079,24.723     l-1.217,24.073c0,0-1.064,0.189-2.912,0.451c-8.656,1.235-34.595,4.193-50.816-1.911l6.32-29.907l-2.921-23.586l-35.254,3.895     l-22.126-28.582l2.948-2.245l6.78-5.157l20.909,20.422l32.72-14.3c1.19,0.857,2.218,1.28,2.218,1.28l-3.084,2.155l26.174,35.506     C309.668,117.607,333.579,111.81,339.007,110.791z"
   id="path121" />
			
				<linearGradient
   id="SVGID_00000156570597536456503730000004328396150148384432_"
   gradientUnits="userSpaceOnUse"
   x1="272.0941"
   y1="67.3776"
   x2="293.4481"
   y2="67.3776">
				<stop
   offset="0"
   style="stop-color:#F7BE86"
   id="stop122" />
				<stop
   offset="0.3293"
   style="stop-color:#F7BC83"
   id="stop123" />
				<stop
   offset="0.5448"
   style="stop-color:#F7B67B"
   id="stop124" />
				<stop
   offset="0.7276"
   style="stop-color:#F7AC6C"
   id="stop125" />
				<stop
   offset="0.8912"
   style="stop-color:#F79E57"
   id="stop126" />
				<stop
   offset="1"
   style="stop-color:#F79244"
   id="stop127" />
			</linearGradient>
			<path
   style="fill:url(#SVGID_00000156570597536456503730000004328396150148384432_);"
   d="M293.448,75.141l-6.87,4.806     c0,0-1.028-0.424-2.218-1.28c-1.551-1.109-3.381-2.939-3.607-5.518c-0.298-3.462-6.14-9.097-8.052-12.46     c-0.613-1.073-0.829-1.911-0.334-2.371c0.631-0.595,2.029-1.343,3.67-2.002c3.634-1.443,8.475-2.425,8.917-0.18     c0.009,0.054,0.027,0.117,0.045,0.18c0.207,0.884,0.82,2.479,1.641,4.373C289.129,66.494,293.448,75.141,293.448,75.141z"
   id="path127" />
			
				<linearGradient
   id="SVGID_00000163069427142074149940000014329365959360585609_"
   gradientUnits="userSpaceOnUse"
   x1="283.4942"
   y1="108.8075"
   x2="339.0072"
   y2="108.8075">
				<stop
   offset="0"
   style="stop-color:#3C0887"
   id="stop128" />
				<stop
   offset="0.3227"
   style="stop-color:#3F0987"
   id="stop129" />
				<stop
   offset="0.5338"
   style="stop-color:#470E87"
   id="stop130" />
				<stop
   offset="0.7129"
   style="stop-color:#561588"
   id="stop131" />
				<stop
   offset="0.8732"
   style="stop-color:#6B1F89"
   id="stop132" />
				<stop
   offset="1"
   style="stop-color:#822A8A"
   id="stop133" />
			</linearGradient>
			<path
   style="opacity:0.38;fill:url(#SVGID_00000163069427142074149940000014329365959360585609_);"
   d="M329.928,135.514     c-40.048-8.495-46.434-53.412-46.434-53.412l26.175,35.531l29.338-6.842L329.928,135.514z"
   id="path133" />
		</g>
		<g
   id="g144">
			
				<linearGradient
   id="SVGID_00000034807444748501561960000012412396919680350649_"
   gradientUnits="userSpaceOnUse"
   x1="296.6399"
   y1="71.931"
   x2="324.6991"
   y2="71.931">
				<stop
   offset="0"
   style="stop-color:#F7BE86"
   id="stop134" />
				<stop
   offset="0.3293"
   style="stop-color:#F7BC83"
   id="stop135" />
				<stop
   offset="0.5448"
   style="stop-color:#F7B67B"
   id="stop136" />
				<stop
   offset="0.7276"
   style="stop-color:#F7AC6C"
   id="stop137" />
				<stop
   offset="0.8912"
   style="stop-color:#F79E57"
   id="stop138" />
				<stop
   offset="1"
   style="stop-color:#F79244"
   id="stop139" />
			</linearGradient>
			<path
   style="fill:url(#SVGID_00000034807444748501561960000012412396919680350649_);"
   d="M322.535,58.614     c0.848-0.234,1.704-0.063,2.047,1.289c0.793,3.093-2.678,6.807-2.678,6.807l0.857,13.732l-10.594,10.089l4.147-11.865     l-10.45,0.685l-6.257-0.685l-1.749-1.65c0,0-1.217-11.388-1.217-18.069c0-1.542,0.063-2.831,0.225-3.67l0.054-0.325     c7.321,1.235,17.482-1.623,17.482-1.623s1.425,13.867,3.372,14.11c1.947,0.234,2.552-7.538,2.552-7.538     S321.435,58.912,322.535,58.614z"
   id="path139" />
			<path
   style="fill:#111023;"
   d="M322.616,48.534l-0.081,10.08c-1.1,0.298-2.209,1.289-2.209,1.289s-0.604,7.772-2.552,7.538     c-1.948-0.243-3.372-14.11-3.372-14.11s-10.161,2.858-17.482,1.623v-0.009c-2.299-0.379-4.31-1.172-5.644-2.579     c-5.599-5.897-3.652-9.242,4.373-7.42C303.673,46.767,320.307,37.11,322.616,48.534z"
   id="path140" />
			<polygon
   style="fill:#F79244;"
   points="316.313,78.666 312.166,90.532 305.863,84.581 305.863,79.351    "
   id="polygon140" />
			<path
   style="fill:#111023;"
   d="M296.22,56.783c1.611-0.809,3.287-0.905,4.982-0.294c1.035,0.373,0.255,1.895-0.768,1.527     c-1.066-0.384-2.271-0.307-3.283,0.201C296.179,58.704,295.237,57.276,296.22,56.783z"
   id="path141" />
			
				<ellipse
   transform="matrix(0.9986 -0.0522 0.0522 0.9986 -2.7514 16.3631)"
   style="fill:#111023;"
   cx="311.774"
   cy="60.837"
   rx="1.229"
   ry="1.824"
   id="ellipse141" />
			<path
   style="fill:#111023;"
   d="M313.918,56.374c-1.687-0.636-3.364-0.557-4.985,0.227c-0.99,0.478-0.056,1.912,0.923,1.439     c1.021-0.493,2.227-0.542,3.286-0.143C314.16,58.28,314.947,56.762,313.918,56.374z"
   id="path142" />
			<path
   style="fill:#F79244;"
   d="M302.053,66.479c0.547-2.584,1.882-5.214,2.785-7.698c0.188-0.517,0.949-0.127,0.764,0.384     c-0.569,1.566-1.138,3.132-1.707,4.698c-0.197,0.543-0.677,1.44-0.732,2.013c-0.186,1.95,0.706,1.798,1.716,2.268     c0.5,0.233,0.114,0.995-0.384,0.764C303.253,68.33,301.678,68.252,302.053,66.479z"
   id="path143" />
			<path
   style="fill:#111023;"
   d="M301.11,61.052c-0.799-0.644-1.707-1.067-2.73-1.198c-0.629-0.08-0.891,0.886-0.252,0.968     c0.516,0.066,1.004,0.214,1.461,0.434c-0.533,0.173-1.067,0.346-1.6,0.519c-0.611,0.198-0.355,1.165,0.259,0.966     c0.878-0.285,1.757-0.57,2.635-0.856C301.204,61.782,301.424,61.304,301.11,61.052z"
   id="path144" />
			<ellipse
   style="fill:#FFFFFF;"
   cx="305.244"
   cy="74.105"
   rx="2.225"
   ry="3.213"
   id="ellipse144" />
		</g>
	</g>
	<g
   id="g168">
		
			<linearGradient
   id="SVGID_00000033363401556590045850000015248926007788986256_"
   gradientUnits="userSpaceOnUse"
   x1="406.5014"
   y1="451.8889"
   x2="407.58"
   y2="377.4619">
			<stop
   offset="0"
   style="stop-color:#8AEBD6"
   id="stop144" />
			<stop
   offset="0.4615"
   style="stop-color:#89E9D7"
   id="stop145" />
			<stop
   offset="0.6276"
   style="stop-color:#84E2DA"
   id="stop146" />
			<stop
   offset="0.7461"
   style="stop-color:#7DD7DE"
   id="stop147" />
			<stop
   offset="0.8419"
   style="stop-color:#72C6E5"
   id="stop148" />
			<stop
   offset="0.9229"
   style="stop-color:#64B0EE"
   id="stop149" />
			<stop
   offset="0.9944"
   style="stop-color:#5395F9"
   id="stop150" />
			<stop
   offset="1"
   style="stop-color:#5193FA"
   id="stop151" />
		</linearGradient>
		<path
   style="opacity:0.5;fill:url(#SVGID_00000033363401556590045850000015248926007788986256_);"
   d="M611.753,373.453H210.494    c0,0-21.59,14.334,10.508,16.761c32.099,2.427,82.165,4.719,80.929,15.64c-1.235,10.921-30.224,8.764-30.224,28.045    c0,19.281,133.701,14.831,133.701,14.831s75.53,0.989,86.285-11.775c10.756-12.764-30.448-24.449-22.97-29.483    c7.478-5.034,61.77,10.067,69.86-2.157c8.09-12.225-1.618-19.955,13.303-21.573S609.236,387.973,611.753,373.453z"
   id="path151" />
		
			<linearGradient
   id="SVGID_00000044152360823223334700000006302308572305849248_"
   gradientUnits="userSpaceOnUse"
   x1="581.4157"
   y1="447.1124"
   x2="581.4157"
   y2="381.5843">
			<stop
   offset="0"
   style="stop-color:#8AEBD6"
   id="stop152" />
			<stop
   offset="0.4615"
   style="stop-color:#89E9D7"
   id="stop153" />
			<stop
   offset="0.6276"
   style="stop-color:#84E2DA"
   id="stop154" />
			<stop
   offset="0.7461"
   style="stop-color:#7DD7DE"
   id="stop155" />
			<stop
   offset="0.8419"
   style="stop-color:#72C6E5"
   id="stop156" />
			<stop
   offset="0.9229"
   style="stop-color:#64B0EE"
   id="stop157" />
			<stop
   offset="0.9944"
   style="stop-color:#5395F9"
   id="stop158" />
			<stop
   offset="1"
   style="stop-color:#5193FA"
   id="stop159" />
		</linearGradient>
		
			<ellipse
   style="fill:url(#SVGID_00000044152360823223334700000006302308572305849248_);"
   cx="581.416"
   cy="398.843"
   rx="30.337"
   ry="8.629"
   id="ellipse159" />
		
			<linearGradient
   id="SVGID_00000097499949813327394440000004370367055230352317_"
   gradientUnits="userSpaceOnUse"
   x1="258.4045"
   y1="447.1124"
   x2="258.4045"
   y2="381.5843">
			<stop
   offset="0"
   style="stop-color:#8AEBD6"
   id="stop160" />
			<stop
   offset="0.4615"
   style="stop-color:#89E9D7"
   id="stop161" />
			<stop
   offset="0.6276"
   style="stop-color:#84E2DA"
   id="stop162" />
			<stop
   offset="0.7461"
   style="stop-color:#7DD7DE"
   id="stop163" />
			<stop
   offset="0.8419"
   style="stop-color:#72C6E5"
   id="stop164" />
			<stop
   offset="0.9229"
   style="stop-color:#64B0EE"
   id="stop165" />
			<stop
   offset="0.9944"
   style="stop-color:#5395F9"
   id="stop166" />
			<stop
   offset="1"
   style="stop-color:#5193FA"
   id="stop167" />
		</linearGradient>
		
			<ellipse
   style="fill:url(#SVGID_00000097499949813327394440000004370367055230352317_);"
   cx="258.404"
   cy="406.303"
   rx="26.517"
   ry="6.562"
   id="ellipse167" />
		<ellipse
   style="fill:#E9FDFF;"
   cx="410.399"
   cy="431.876"
   rx="30.117"
   ry="5.798"
   id="ellipse168" />
	</g>
	<g
   id="g184">
		<g
   id="g177">
			
				<linearGradient
   id="SVGID_00000132801135441387641620000012226918283761129658_"
   gradientUnits="userSpaceOnUse"
   x1="360.8077"
   y1="325.3714"
   x2="466.1603"
   y2="325.3714"
   gradientTransform="matrix(0.9797 0.2002 -0.2002 0.9797 63.9508 -75.1856)">
				<stop
   offset="0"
   style="stop-color:#31D1D6"
   id="stop168" />
				<stop
   offset="0.3733"
   style="stop-color:#32CED8"
   id="stop169" />
				<stop
   offset="0.6175"
   style="stop-color:#36C6DF"
   id="stop170" />
				<stop
   offset="0.824"
   style="stop-color:#3CB7EB"
   id="stop171" />
				<stop
   offset="1"
   style="stop-color:#45A3FA"
   id="stop172" />
			</linearGradient>
			<path
   style="fill:url(#SVGID_00000132801135441387641620000012226918283761129658_);"
   d="M450.234,296.289     c-6.18-14.13-17.77-22.93-34.77-26.4c-1.85-0.38-3.66-0.68-5.43-0.9c-15-1.9-27.37,1.68-37.11,10.74     c-10.9,10.12-18.94,27.89-24.14,53.31c-3.18,15.57-4.07,29.04-2.66,40.41h37.16c-0.47-6.64,0.84-17.5,3.92-32.56     c3.33-16.29,6.63-27.29,9.9-33.01c1.9-3.32,4.05-5.51,6.45-6.57c1.73-0.77,3.6-0.95,5.59-0.54c4.76,0.98,7.5,4.85,8.22,11.61     c0.72,6.77-0.54,18.07-3.77,33.9c-2.43,11.87-4.87,20.92-7.31,27.17h40.74c1.89-5.85,3.55-12.29,4.98-19.32     c0.95-4.65,1.7-9.11,2.24-13.38C456.574,322.549,455.234,307.729,450.234,296.289z"
   id="path172" />
			
				<linearGradient
   id="SVGID_00000125578716252274338100000006956420810423414424_"
   gradientUnits="userSpaceOnUse"
   x1="390.7731"
   y1="380.5892"
   x2="389.6944"
   y2="325.5779">
				<stop
   offset="0"
   style="stop-color:#F9E6D9"
   id="stop173" />
				<stop
   offset="0.121"
   style="stop-color:#FCF1EA"
   id="stop174" />
				<stop
   offset="0.2698"
   style="stop-color:#FEF9F6"
   id="stop175" />
				<stop
   offset="0.4751"
   style="stop-color:#FFFEFD"
   id="stop176" />
				<stop
   offset="1"
   style="stop-color:#FFFFFF"
   id="stop177" />
			</linearGradient>
			<path
   style="fill:url(#SVGID_00000125578716252274338100000006956420810423414424_);"
   d="M439.824,294.169     c-5.55-12.69-15.48-21.09-29.79-25.18c-1.61-0.46-3.27-0.87-4.99-1.22c-17.46-3.57-31.64-0.29-42.54,9.84     c-10.89,10.13-18.94,27.9-24.13,53.31c-1.06,5.17-1.86,10.12-2.41,14.83c-1.21,10.35-1.2,19.59,0.04,27.7h37.11     c-0.05-0.24-0.08-0.48-0.11-0.73c-0.78-6.47,0.48-17.79,3.78-33.95c3.33-16.29,6.63-27.29,9.91-33     c3.27-5.72,7.28-8.09,12.04-7.11c1.95,0.4,3.56,1.28,4.82,2.65c1.85,1.98,2.97,4.96,3.4,8.95c0.72,6.77-0.54,18.07-3.77,33.9     c-2.72,13.28-5.45,23.04-8.19,29.29h40.93c2.16-6.4,4.05-13.54,5.67-21.43C446.584,327.579,445.994,308.299,439.824,294.169z"
   id="path177" />
		</g>
		<g
   id="g178">
			<polygon
   style="fill:#2A2A2A;"
   points="468.19,198.87 467.94,199.06 441.81,219.4 425.5,232.09 411.92,269.67 408.15,268.31      422.14,229.64 465.74,195.71    "
   id="polygon177" />
		</g>
		
			<linearGradient
   id="SVGID_00000052789247920866596060000018386427192280505787_"
   gradientUnits="userSpaceOnUse"
   x1="441.81"
   y1="245.285"
   x2="484.5118"
   y2="245.285">
			<stop
   offset="0"
   style="stop-color:#7B6ED6"
   id="stop178" />
			<stop
   offset="0.4804"
   style="stop-color:#796DD5"
   id="stop179" />
			<stop
   offset="0.6535"
   style="stop-color:#7268D0"
   id="stop180" />
			<stop
   offset="0.7768"
   style="stop-color:#6760C9"
   id="stop181" />
			<stop
   offset="0.8765"
   style="stop-color:#5655BE"
   id="stop182" />
			<stop
   offset="0.961"
   style="stop-color:#4047B0"
   id="stop183" />
			<stop
   offset="1"
   style="stop-color:#333EA8"
   id="stop184" />
		</linearGradient>
		<path
   style="fill:url(#SVGID_00000052789247920866596060000018386427192280505787_);"
   d="M480.71,283.21    c-2.97,3.53-7.02,5.95-10.99,8.3l-0.27-0.47c1.57-2.01,3.23-4.37,2.76-6.88c-0.33-1.71-1.59-3.07-2.88-4.22    c-2.19-1.93-4.63-3.56-6.72-5.59c-2.09-2.03-3.86-4.58-4.2-7.47c-0.44-3.8,1.61-7.39,2.41-11.13c0.32-1.5,0.43-3.1-0.17-4.51    c-1.34-3.18-5.39-3.91-8.6-5.19c-2.87-1.16-5.57-3.31-6.37-6.3c-1.16-4.34,1.93-8.78,1.51-13.25c-0.29-3.12-2.51-5.91-5.38-7.1    l26.13-20.34c4.43,3.84,8.25,8.93,8.3,14.74c0.02,3.68-1.47,7.18-2.53,10.7c-0.42,1.42-0.78,2.9-0.52,4.35    c0.41,2.22,2.18,3.9,3.81,5.47c3.37,3.23,6.76,7.16,6.7,11.83c-0.06,5.24-4.53,9.91-3.75,15.09c0.5,3.31,3.05,5.95,4.07,9.13    C485.42,274.77,483.68,279.68,480.71,283.21z"
   id="path184" />
	</g>
</g>

</svg>
