<svg width="45" height="46" viewBox="0 0 45 46" fill="none" xmlns="http://www.w3.org/2000/svg">
<path d="M33.0388 33.6018C33.7636 32.882 34.9253 32.882 35.65 33.6018L40.44 37.4683H40.5232C41.4923 38.4478 41.4923 40.0359 40.5232 41.0154C39.5541 41.9949 37.9829 41.9949 37.0139 41.0154L33.0388 36.4596L32.888 36.2894C32.607 35.9338 32.4518 35.4903 32.4518 35.0307C32.4518 34.4945 32.663 33.9803 33.0388 33.6018ZM19.8331 4.25C24.0986 4.25 28.1894 5.96269 31.2055 9.0113C34.2217 12.0599 35.9161 16.1947 35.9161 20.5061C35.9161 29.4841 28.7155 36.7622 19.8331 36.7622C10.9506 36.7622 3.75 29.4841 3.75 20.5061C3.75 11.5281 10.9506 4.25 19.8331 4.25Z" fill="#FDFFFE"/>
</svg>
