<svg width="60" height="30" viewBox="0 0 60 30" fill="none" xmlns="http://www.w3.org/2000/svg">
<g clip-path="url(#clip0_1317_235)">
<path d="M55.1801 15.2634C55.1593 15.2634 55.1402 15.2684 55.1193 15.2684C55.5021 14.3862 55.7168 13.4151 55.7168 12.3946C55.7168 8.38909 52.4552 5.14463 48.4319 5.14463C47.01 5.14463 45.6876 5.55482 44.5663 6.25659C43.0495 2.58714 39.4262 3.8147e-06 35.1927 3.8147e-06C29.5948 3.8147e-06 25.0567 4.51947 25.0567 10.0916C25.0567 10.5117 25.091 10.9243 25.1414 11.3321C25.1128 11.3321 25.0853 11.3271 25.0567 11.3271C21.3036 11.3271 18.2609 14.3566 18.2609 18.0925C18.2609 21.8284 21.3036 24.8571 25.0567 24.8571H55.1801C57.842 24.8571 60 22.7094 60 20.0597C60 17.4103 57.842 15.2634 55.1801 15.2634Z" fill="#E2DCDC"/>
<path d="M44.6108 18.4214C44.5856 18.4214 44.5625 18.4274 44.5373 18.4274C44.9998 17.3627 45.2593 16.1907 45.2593 14.959C45.2593 10.1248 41.3181 6.20904 36.4567 6.20904C34.7385 6.20904 33.1407 6.70409 31.7857 7.55105C29.953 3.1224 25.5748 0 20.4593 0C13.6952 0 8.21168 5.45453 8.21168 12.1795C8.21168 12.6865 8.25307 13.1846 8.31396 13.6766C8.27946 13.6766 8.24618 13.6707 8.21168 13.6707C3.6766 13.6707 0 17.3269 0 21.8358C0 26.3447 3.6766 30 8.21168 30H44.6108C47.8272 30 50.4348 27.4078 50.4348 24.21C50.4348 21.0124 47.8272 18.4214 44.6108 18.4214Z" fill="white"/>
</g>
<defs>
<clipPath id="clip0_1317_235">
<rect width="60" height="30" fill="white"/>
</clipPath>
</defs>
</svg>
