<svg width="45" height="46" viewBox="0 0 45 46" fill="none" xmlns="http://www.w3.org/2000/svg">
<g opacity="0.4">
<path d="M9.28637 35.775C8.36712 37.6871 9.17237 39.9838 11.0847 40.9008C12.9974 41.8206 15.2927 41.0151 16.212 39.103C17.1313 37.1909 16.1504 30.362 16.1504 30.362C16.1504 30.362 10.2059 33.8629 9.28637 35.775Z" fill="white"/>
<path d="M19.5369 35.775C18.6179 37.6871 19.4229 39.9838 21.3355 40.9008C23.2476 41.8206 25.5432 41.0151 26.4625 39.103C27.3817 37.1909 26.4009 30.362 26.4009 30.362C26.4009 30.362 20.4561 33.8629 19.5369 35.775Z" fill="white"/>
<path d="M23.911 26.7242C24.8302 24.8121 23.8494 17.9832 23.8494 17.9832C23.8494 17.9832 17.9049 21.484 16.9853 23.3961C16.0661 25.3082 16.8713 27.605 18.7837 28.522C20.6964 29.4418 22.9917 28.6363 23.911 26.7242Z" fill="white"/>
<path d="M29.9412 28.522C31.8536 29.4418 34.1489 28.6363 35.0682 26.7242C35.9875 24.8121 35.0066 17.9832 35.0066 17.9832C35.0066 17.9832 29.0621 21.484 28.1426 23.3961C27.2236 25.3082 28.0286 27.605 29.9412 28.522Z" fill="white"/>
<path d="M33.3468 15.334C34.2663 13.4216 33.2857 6.59353 33.2857 6.59353C33.2857 6.59353 27.3407 10.0927 26.4217 12.0051C25.5025 13.9175 26.3072 16.2131 28.2198 17.1323C30.1322 18.0502 32.4275 17.2466 33.3468 15.334Z" fill="white"/>
<path d="M35.9501 30.362C35.9501 30.362 30.0053 33.8629 29.0861 35.775C28.1668 37.6871 28.9721 39.9838 30.8841 40.9008C32.7968 41.8206 35.0922 41.0151 36.0117 39.103C36.9309 37.1909 35.9501 30.362 35.9501 30.362Z" fill="white"/>
</g>
</svg>
