<svg width="45" height="46" viewBox="0 0 45 46" fill="none" xmlns="http://www.w3.org/2000/svg">
<g opacity="0.4">
<path d="M35.8764 19.466C35.8582 19.466 35.8416 19.471 35.8237 19.4712C36.1568 18.7007 36.3434 17.8519 36.3434 16.9592C36.3434 13.4582 33.5052 10.62 30.0043 10.62C28.7669 10.62 27.6162 10.9801 26.6405 11.5931C25.3206 8.38533 22.1677 6.12496 18.4838 6.12496C13.6125 6.12496 9.66371 10.0737 9.66371 14.945C9.66371 15.3131 9.69352 15.6739 9.73737 16.0301C9.71253 16.0299 9.68855 16.0264 9.66371 16.0264C6.39779 16.0264 3.75 18.6741 3.75 21.9402C3.75 25.2061 6.39779 27.8538 9.66371 27.8538H35.8764C38.1927 27.8538 40.0703 25.9762 40.0703 23.6599C40.0703 21.3436 38.1927 19.466 35.8764 19.466Z" fill="white"/>
<path d="M15.3722 38.1867C14.6598 39.6688 12.8807 40.2928 11.3986 39.5804C9.91657 38.868 9.29251 37.0889 10.0049 35.6068C10.7176 34.1247 15.3245 31.4129 15.3245 31.4129C15.3245 31.4129 16.0846 36.7046 15.3722 38.1867Z" fill="white"/>
<path d="M22.7762 38.1867C22.064 39.6688 20.2849 40.2928 18.8029 39.5804C17.3206 38.868 16.6967 37.0889 17.4091 35.6068C18.1218 34.1247 22.7287 31.4129 22.7287 31.4129C22.7287 31.4129 23.4889 36.7046 22.7762 38.1867Z" fill="white"/>
<path d="M30.2848 38.1867C29.5724 39.6688 27.7933 40.2928 26.3113 39.5804C24.8292 38.868 24.2053 37.0889 24.9175 35.6068C25.6302 34.1247 30.2371 31.4129 30.2371 31.4129C30.2371 31.4129 30.9973 36.7046 30.2848 38.1867Z" fill="white"/>
</g>
</svg>
