<svg width="45" height="46" viewBox="0 0 45 46" fill="none" xmlns="http://www.w3.org/2000/svg">
<g opacity="0.4">
<path d="M4.85915 11.2746C4.85915 10.2606 5.5352 9.58451 6.54929 9.58451H8.23943C9.25351 9.58451 9.92957 10.2606 9.92957 11.2746C9.92957 12.2887 9.25351 12.9648 8.23943 12.9648H6.54929C5.5352 12.9648 4.85915 12.2887 4.85915 11.2746ZM6.54929 24.7958C6.54929 23.7817 7.22535 23.1056 8.23943 23.1056H9.92957C10.9437 23.1056 11.6197 23.7817 11.6197 24.7958C11.6197 25.8099 10.9437 26.4859 9.92957 26.4859H8.23943C7.22535 26.4859 6.54929 25.8099 6.54929 24.7958ZM6.54929 29.8662C5.5352 29.8662 4.85915 30.5422 4.85915 31.5563C4.85915 32.5704 5.5352 33.2465 6.54929 33.2465H20.0704C21.0845 33.2465 21.7606 32.5704 21.7606 31.5563C21.7606 30.5422 21.0845 29.8662 20.0704 29.8662H6.54929ZM35.2817 11.2746C35.2817 10.2606 35.9577 9.58451 36.9718 9.58451H40.3521C41.3662 9.58451 42.0423 10.2606 42.0423 11.2746C42.0423 12.2887 41.3662 12.9648 40.3521 12.9648H36.9718C35.9577 12.9648 35.2817 12.2887 35.2817 11.2746ZM11.6197 36.6268C10.6056 36.6268 9.92957 37.3028 9.92957 38.3169C9.92957 39.331 10.6056 40.007 11.6197 40.007H23.4507C24.4648 40.007 25.1408 39.331 25.1408 38.3169C25.1408 37.3028 24.4648 36.6268 23.4507 36.6268H11.6197ZM4.85915 19.7253C3.84506 19.7253 3.16901 19.0493 3.16901 18.0352C3.16901 17.0211 3.84506 16.3451 4.85915 16.3451H25.1408C27 16.3451 28.5211 14.8239 28.5211 12.9648C28.5211 11.1056 27 9.58451 25.1408 9.58451C24.1268 9.58451 23.2817 9.92253 22.7746 10.5986C22.0986 11.2746 21.0845 11.2746 20.4084 10.5986C19.7324 9.92253 19.7324 8.90845 20.4084 8.23239C21.5915 7.04929 23.2817 6.20422 25.1408 6.20422C28.8591 6.20422 31.9014 9.24648 31.9014 12.9648C31.9014 16.6831 28.8591 19.7253 25.1408 19.7253H4.85915ZM36.9718 23.1056C37.9859 23.1056 38.662 22.4296 38.662 21.4155C38.662 20.4014 37.9859 19.7253 36.9718 19.7253C36.4648 19.7253 36.1268 19.8944 35.7887 20.2324C35.1127 20.9084 34.0986 20.9084 33.4225 20.2324C32.7465 19.5563 32.7465 18.5423 33.4225 17.8662C34.2676 16.8521 35.6197 16.3451 36.9718 16.3451C39.8451 16.3451 42.0423 18.5423 42.0423 21.4155C42.0423 24.2887 39.8451 26.4859 36.9718 26.4859H21.7606C20.7465 26.4859 20.0704 25.8099 20.0704 24.7958C20.0704 23.7817 20.7465 23.1056 21.7606 23.1056H36.9718ZM35.2817 33.2465H26.831C25.8169 33.2465 25.1408 32.5704 25.1408 31.5563C25.1408 30.5422 25.8169 29.8662 26.831 29.8662H35.2817C38.1549 29.8662 40.3521 32.0634 40.3521 34.9366C40.3521 37.8099 38.1549 40.007 35.2817 40.007C33.9296 40.007 32.5775 39.5 31.7324 38.4859C31.0563 37.8099 31.0563 36.7958 31.7324 36.1197C32.4084 35.4437 33.4225 35.4437 34.0986 36.1197C34.4366 36.4577 34.7746 36.6268 35.2817 36.6268C36.2958 36.6268 36.9718 35.9507 36.9718 34.9366C36.9718 33.9225 36.2958 33.2465 35.2817 33.2465Z" fill="white"/>
</g>
</svg>
